{"accessors" : [{"bufferView" : 0, "byteOffset" : 0, "componentType" : 5123, "count" : 351, "type" : "SCALAR", "max" : [302], "min" : [0]}, {"bufferView" : 1, "byteOffset" : 0, "componentType" : 5126, "count" : 303, "type" : "VEC3", "max" : [692.997314453125, 578.9970092773438, 0], "min" : [315.0054016113281, 445.00323486328125, 0], "name" : "POSITION"}, {"bufferView" : 1, "byteOffset" : 12, "componentType" : 5126, "count" : 303, "type" : "VEC2", "max" : [1, -0], "min" : [0, -1], "name" : "TEXCOORD_0"}, {"bufferView" : 1, "byteOffset" : 20, "componentType" : 5126, "count" : 303, "type" : "VEC3", "max" : [0, 0, 1.0000044107437134], "min" : [0, 0, 1.0000044107437134], "name" : "NORMAL"}, {"bufferView" : 0, "byteOffset" : 704, "componentType" : 5123, "count" : 3, "type" : "SCALAR", "max" : [0], "min" : [0]}, {"bufferView" : 2, "byteOffset" : 0, "componentType" : 5126, "count" : 1, "type" : "VEC3", "max" : [374.4928283691406, 511.75689697265625, 0], "min" : [374.4928283691406, 511.75689697265625, 0], "name" : "POSITION"}, {"bufferView" : 2, "byteOffset" : 12, "componentType" : 5126, "count" : 1, "type" : "VEC2", "max" : [0.15737800300121307, -0.49818500876426697], "min" : [0.15737800300121307, -0.49818500876426697], "name" : "TEXCOORD_0"}, {"bufferView" : 2, "byteOffset" : 20, "componentType" : 5126, "count" : 1, "type" : "VEC3", "max" : [0, 0, 1.0000044107437134], "min" : [0, 0, 1.0000044107437134], "name" : "NORMAL"}, {"bufferView" : 0, "byteOffset" : 712, "componentType" : 5123, "count" : 258, "type" : "SCALAR", "max" : [214], "min" : [0]}, {"bufferView" : 3, "byteOffset" : 0, "componentType" : 5126, "count" : 215, "type" : "VEC3", "max" : [692.997314453125, 578.9970092773438, 0], "min" : [315.0054016113281, 445.00323486328125, -133.9937744140625], "name" : "POSITION"}, {"bufferView" : 3, "byteOffset" : 12, "componentType" : 5126, "count" : 215, "type" : "VEC2", "max" : [1, -0.5], "min" : [0, -1], "name" : "TEXCOORD_0"}, {"bufferView" : 3, "byteOffset" : 20, "componentType" : 5126, "count" : 215, "type" : "VEC3", "max" : [1.0000044107437134, 0.9999829530715942, 0], "min" : [-1.0000044107437134, -0.9996997117996216, 0], "name" : "NORMAL"}, {"bufferView" : 0, "byteOffset" : 1228, "componentType" : 5123, "count" : 3, "type" : "SCALAR", "max" : [0], "min" : [0]}, {"bufferView" : 4, "byteOffset" : 0, "componentType" : 5126, "count" : 1, "type" : "VEC3", "max" : [374.4928283691406, 511.75689697265625, 0], "min" : [374.4928283691406, 511.75689697265625, 0], "name" : "POSITION"}, {"bufferView" : 4, "byteOffset" : 12, "componentType" : 5126, "count" : 1, "type" : "VEC2", "max" : [0.15737800300121307, -0.49818500876426697], "min" : [0.15737800300121307, -0.49818500876426697], "name" : "TEXCOORD_0"}, {"bufferView" : 4, "byteOffset" : 20, "componentType" : 5126, "count" : 1, "type" : "VEC3", "max" : [0, 0, 1.0000044107437134], "min" : [0, 0, 1.0000044107437134], "name" : "NORMAL"}, {"bufferView" : 0, "byteOffset" : 1236, "componentType" : 5123, "count" : 351, "type" : "SCALAR", "max" : [295], "min" : [0]}, {"bufferView" : 5, "byteOffset" : 0, "componentType" : 5126, "count" : 296, "type" : "VEC3", "max" : [692.997314453125, 578.9970092773438, -133.9937744140625], "min" : [315.0054016113281, 445.00323486328125, -133.9937744140625], "name" : "POSITION"}, {"bufferView" : 5, "byteOffset" : 12, "componentType" : 5126, "count" : 296, "type" : "VEC2", "max" : [1, -0], "min" : [0, -1], "name" : "TEXCOORD_0"}, {"bufferView" : 5, "byteOffset" : 20, "componentType" : 5126, "count" : 296, "type" : "VEC3", "max" : [0, 0, -1.0000044107437134], "min" : [0, 0, -1.0000044107437134], "name" : "NORMAL"}], "asset" : {"generator" : "Aspose.3D 23.9.0", "version" : "2.0"}, "buffers" : [{"uri" : "data:application/octet-stream;base64,", "byteLength" : 32876}], "bufferViews" : [{"buffer" : 0, "byteOffset" : 0, "byteLength" : 1940, "target" : 34963}, {"buffer" : 0, "byteOffset" : 1944, "byteLength" : 11232, "byteStride" : 32, "target" : 34962}, {"buffer" : 0, "byteOffset" : 13180, "byteLength" : 96, "byteStride" : 32, "target" : 34962}, {"buffer" : 0, "byteOffset" : 13280, "byteLength" : 8256, "byteStride" : 32, "target" : 34962}, {"buffer" : 0, "byteOffset" : 21540, "byteLength" : 96, "byteStride" : 32, "target" : 34962}, {"buffer" : 0, "byteOffset" : 21640, "byteLength" : 11232, "byteStride" : 32, "target" : 34962}], "meshes" : [{"primitives" : [{"attributes" : {"POSITION" : 1, "TEXCOORD_0" : 2, "NORMAL" : 3}, "indices" : 0, "mode" : 4}, {"attributes" : {"POSITION" : 5, "TEXCOORD_0" : 6, "NORMAL" : 7}, "indices" : 4, "mode" : 4}, {"attributes" : {"POSITION" : 9, "TEXCOORD_0" : 10, "NORMAL" : 11}, "indices" : 8, "mode" : 4}, {"attributes" : {"POSITION" : 13, "TEXCOORD_0" : 14, "NORMAL" : 15}, "indices" : 12, "mode" : 4}, {"attributes" : {"POSITION" : 17, "TEXCOORD_0" : 18, "NORMAL" : 19}, "indices" : 16, "mode" : 4}], "name" : ""}], "nodes" : [{"mesh" : 0, "name" : ""}], "scene" : 0, "scenes" : [{"nodes" : [0]}]}